:SAMPLES-PER-SECOND 24
:FULLY-SPECIFIED
:DEGREES
113
root  -1.00526 39.9104 5.64578 179.722 -12.1656 179.667
RightUpLeg  0.567138 -15.6741 -7.61405
RightLeg  13.8066 -2.79166 0.806038
RightFoot  -6.88845 -0.288502 6.22038
RightToes  -1.46215e-006 3.27826e-006 1.63871e-007
Spine  4.06403 1.71806 9.03406
Spine1  12.7233 3.7139 -6.03328
HEad  -45.5449 61.4052 -50.0593
LeftShoulder1  2.79683 -4.43976 -29.1698
LeftArm  39.2334 -7.85706 -45.4956
LeftForeArm  -14.4106 -27.9631 -6.65502
LeftHand  -1.09437 0.473675 25.6802
RightShoulder  3.48064 5.9922 30.7553
RightArm  -13.7091 9.38745 41.3563
RightForeArm  14.0999 -3.4018 13.2911
RightHand  -2.69026 8.44625 -22.6219
LeftUpLeg  -6.68916 -3.20801 5.68575
LeftLeg  11.8877 -4.82052 0.500441
LeftFoot  -2.31787 0.384267 -4.69628
LeftToes  1.24762e-006 1.46925e-008 1.29056e-009
114
root  -0.515746 39.8207 5.77381 179.69 -22.2694 179.339
RightUpLeg  1.77706 -25.1295 -8.46737
RightLeg  15.8925 -2.41148 0.0567479
RightFoot  -8.29687 -0.241089 6.94947
RightToes  -1.46215e-006 3.27826e-006 1.63871e-007
Spine  4.52108 2.14851 9.28154
Spine1  12.575 4.15232 -5.91088
HEad  -34.1551 55.989 -38.8624
LeftShoulder1  2.62476 -4.24511 -27.8014
LeftArm  33.2978 -9.69604 -41.2332
LeftForeArm  -20.215 -21.6691 -7.40672
LeftHand  -1.04036 0.971896 27.0927
RightShoulder  3.29395 5.8094 29.4562
RightArm  -23.334 12.3261 35.7184
RightForeArm  8.68718 -8.06004 10.5124
RightHand  -2.40762 6.70038 -23.1192
LeftUpLeg  -9.05851 -4.77775 5.49083
LeftLeg  11.5808 -5.67474 0.866157
LeftFoot  -1.18137 0.27081 -2.97882
LeftToes  1.24762e-006 1.46925e-008 1.29056e-009
115
root  -0.0622451 39.8126 5.71695 179.79 -32.4768 179.384
RightUpLeg  4.88513 -31.1587 -9.65628
RightLeg  14.8884 -5.47295 0.879278
RightFoot  -8.98798 -0.213577 7.40832
RightToes  -1.46215e-006 3.27826e-006 1.63871e-007
Spine  4.36698 2.62002 9.79777
Spine1  11.5319 4.65825 -6.08327
HEad  -23.0682 48.709 -27.5864
LeftShoulder1  2.33845 -3.88265 -25.5059
LeftArm  9.44575 -13.3809 -33.2247
LeftForeArm  -10.7332 -11.92 -12.7525
LeftHand  -1.19232 0.48468 27.9365
RightShoulder  3.06377 5.55831 27.8699
RightArm  -29.3008 11.4557 28.6668
RightForeArm  -2.95219 -7.30511 9.2368
RightHand  -2.29609 5.62849 -24.1333
LeftUpLeg  -11.046 -2.61976 6.03977
LeftLeg  10.1748 -0.480173 1.79013
LeftFoot  -0.459293 -0.0111345 0.145974
LeftToes  1.24762e-006 1.46925e-008 1.29056e-009
116
root  0.264587 39.8452 5.53975 179.475 -41.5887 179.684
RightUpLeg  8.21464 -27.124 -9.22407
RightLeg  11.9705 -17.8997 2.86032
RightFoot  -8.91088 -0.228484 7.899
RightToes  -1.46215e-006 3.27826e-006 1.63871e-007
Spine  3.71985 3.02841 9.2945
Spine1  10.6755 4.68444 -4.90356
HEad  -14.5744 40.974 -19.5039
LeftShoulder1  1.95515 -3.44514 -21.7921
LeftArm  -12.2505 -18.5495 -23.754
LeftForeArm  -6.89672 -1.16184 -13.8273
LeftHand  -1.10752 0.897339 28.3248
RightShoulder  2.39033 4.62345 23.2503
RightArm  -33.8059 12.0842 22.6194
RightForeArm  -13.4696 -6.94295 8.15103
RightHand  -1.96527 3.52658 -25.4469
LeftUpLeg  -12.0668 0.407363 6.87158
LeftLeg  8.29186 6.00745 1.93024
LeftFoot  -0.0315533 -0.293677 2.96747
LeftToes  1.24762e-006 1.46925e-008 1.29056e-009
117
root  0.358318 39.8857 5.40421 178.621 -48.5189 179.703
RightUpLeg  10.5548 -24.2138 -8.78098
RightLeg  11.1245 -26.0875 3.19861
RightFoot  -8.45676 -0.30617 9.83644
RightToes  -1.46215e-006 3.27826e-006 1.63871e-007
Spine  4.16796 3.22119 8.28085
Spine1  9.23668 4.50664 -3.64115
HEad  -8.82724 34.9443 -14.5441
LeftShoulder1  1.50348 -2.88886 -16.8178
LeftArm  -22.1618 -23.3653 -14.0189
LeftForeArm  -17.966 5.47503 -11.9695
LeftHand  -0.550579 3.17502 28.6517
RightShoulder  1.63946 3.42712 17.0782
RightArm  -39.2618 16.9585 14.9588
RightForeArm  -19.8403 -6.55859 6.75581
RightHand  -1.32873 0.956754 -24.0783
LeftUpLeg  -11.376 2.08684 7.19044
LeftLeg  6.30914 10.9675 1.28778
LeftFoot  1.85608 -0.521466 4.40409
LeftToes  1.24762e-006 1.46925e-008 1.29056e-009
118
root  0.158048 39.9199 5.36993 177.549 -53.7028 -179.983
RightUpLeg  12.5518 -30.0952 -10.8128
RightLeg  13.4308 -21.9145 1.51259
RightFoot  -7.73993 -0.464063 13.0122
RightToes  -1.46215e-006 3.27826e-006 1.63871e-007
Spine  4.89466 3.6147 8.11025
Spine1  7.45018 4.71106 -2.87992
HEad  -4.92265 29.1282 -11.4888
LeftShoulder1  1.00404 -1.86559 -11.5186
LeftArm  -32.9517 -28.5994 -4.01676
LeftForeArm  -28.4593 7.01834 -9.87849
LeftHand  -0.140603 4.86182 31.037
RightShoulder  0.992705 2.15443 10.3048
RightArm  -46.0263 22.7473 5.25655
RightForeArm  -25.5798 -6.11561 5.0893
RightHand  -0.721146 -1.58663 -21.8135
LeftUpLeg  -10.3092 2.95975 7.05604
LeftLeg  5.33694 14.9363 0.568032
LeftFoot  5.14462 -0.787607 5.2092
LeftToes  1.24762e-006 1.46925e-008 1.29056e-009
119
root  -0.272065 39.939 5.40681 176.465 -58.1284 -179.167
RightUpLeg  14.7193 -37.7425 -13.8791
RightLeg  15.8708 -14.8669 -0.289091
RightFoot  -6.63757 -0.709633 16.0499
RightToes  -1.46215e-006 3.27826e-006 1.63871e-007
Spine  5.56639 4.33025 8.80798
Spine1  4.75316 5.39478 -2.77395
HEad  -1.34027 23.1194 -8.78333
LeftShoulder1  0.543602 -0.231263 -6.89089
LeftArm  -47.2881 -36.9991 7.22682
LeftForeArm  -32.5845 6.30333 -7.51099
LeftHand  -0.0619398 5.15164 32.6081
RightShoulder  0.430856 0.32979 3.11633
RightArm  -54.5464 29.3058 -4.94021
RightForeArm  -30.1312 -5.66328 3.27783
RightHand  -0.257392 -4.20296 -25.0506
LeftUpLeg  -9.74674 3.21483 6.47797
LeftLeg  5.35197 17.3921 0.296436
LeftFoot  7.94876 -0.900464 5.00891
LeftToes  1.24762e-006 1.46925e-008 1.29056e-009
120
root  -0.825031 39.9549 5.5026 175.447 -62.3456 -178.797
RightUpLeg  16.7049 -39.4743 -15.5805
RightLeg  17.0309 -11.4947 -1.91371
RightFoot  -5.62313 -0.931339 17.7438
RightToes  -1.46215e-006 3.27826e-006 1.63871e-007
Spine  7.0572 4.68754 10.5987
Spine1  1.02977 6.23354 -5.19687
HEad  2.24346 17.8533 -5.36753
LeftShoulder1  0.208263 1.5768 -2.66844
LeftArm  -69.6296 -47.5018 21.7132
LeftForeArm  -32.391 5.7703 -4.30745
LeftHand  -0.0375382 5.23531 31.0194
RightShoulder  0.128715 -1.33933 -2.9055
RightArm  -69.0682 38.5349 -16.8549
RightForeArm  -31.2974 -5.13367 0.443036
RightHand  -0.12607 -4.90978 -29.8306
LeftUpLeg  -8.88498 2.30428 5.31949
LeftLeg  5.13831 17.0099 0.200807
LeftFoot  9.76435 -0.678929 3.32314
LeftToes  1.24762e-006 1.46925e-008 1.29056e-009
121
root  -1.39183 39.9338 5.63316 174.918 -66.4872 -179.216
RightUpLeg  16.6499 -32.6812 -13.8284
RightLeg  18.0937 -9.46495 -3.22647
RightFoot  -5.54345 -0.904059 16.9763
RightToes  -1.46215e-006 3.27826e-006 1.63871e-007
Spine  8.49238 4.59741 13.1011
Spine1  -1.65177 6.93335 -9.66581
HEad  4.52277 12.7977 -2.27275
LeftShoulder1  0.0274651 3.08983 2.12842
LeftArm  -101.596 -56.2914 39.4405
LeftForeArm  -26.8041 -1.58966 -1.60212
LeftHand  -0.473706 3.58266 30.3105
RightShoulder  0.0155225 -2.54874 -8.17058
RightArm  -91.2394 48.6183 -31.9039
RightForeArm  -29.5268 -4.59771 -2.94256
RightHand  -0.387533 -3.81818 -28.0136
LeftUpLeg  -8.35545 1.55701 3.98723
LeftLeg  5.70858 13.8736 -0.105864
LeftFoot  10.2393 -0.380063 1.66072
LeftToes  1.24762e-006 1.46925e-008 1.29056e-009
122
root  -1.8228 39.8157 5.75123 175.997 -70.4412 179.331
RightUpLeg  14.3126 -18.0731 -9.27395
RightLeg  20.804 -7.75137 -3.49967
RightFoot  -6.81761 -0.591769 13.6475
RightToes  -1.46215e-006 3.27826e-006 1.63871e-007
Spine  9.40574 4.32266 14.8173
Spine1  -3.1317 7.23055 -13.7711
HEad  4.83037 8.07851 -0.558672
LeftShoulder1  -0.0207896 4.68166 7.37374
LeftArm  -134.957 -61.1382 59.5468
LeftForeArm  -13.8949 -16.4692 -3.41693
LeftHand  -1.1196 0.824165 28.2108
RightShoulder  0.0215676 -3.86498 -14.1898
RightArm  -118.219 56.9443 -48.2632
RightForeArm  -19.7119 -4.70855 -5.43716
RightHand  -1.02857 0.39703 -21.1712
LeftUpLeg  -9.39507 1.89498 2.50671
LeftLeg  8.20579 10.2042 -0.543395
LeftFoot  9.13123 -0.346845 1.61681
LeftToes  1.24762e-006 1.46925e-008 1.29056e-009
123
root  -2.0441 39.6027 5.82927 179.543 -74.2643 175.982
RightUpLeg  12.1575 -4.64704 -6.39497
RightLeg  24.5584 -3.78434 -2.10573
RightFoot  -8.66433 -0.305123 10.4471
RightToes  -1.46215e-006 3.27826e-006 1.63871e-007
Spine  10.6238 3.78142 15.167
Spine1  -4.76633 6.87267 -16.5194
HEad  3.30625 4.42463 -0.217901
LeftShoulder1  0.0302149 6.29228 10.8591
LeftArm  -155.337 -60.9747 78.1234
LeftForeArm  -4.75549 -29.1425 -6.60307
LeftHand  -1.18128 0.531246 27.9585
RightShoulder  0.121947 -4.8668 -19.2901
RightArm  -143.433 62.5659 -64.3405
RightForeArm  -2.52069 -1.94907 -4.8138
RightHand  -1.99207 7.47296 -18.2103
LeftUpLeg  -11.3801 2.22975 0.481032
LeftLeg  11.1104 7.16962 -0.748538
LeftFoot  7.81945 -0.473126 2.52245
LeftToes  1.24762e-006 1.46925e-008 1.29056e-009
124
root  -2.10839 39.3479 5.85403 -175.16 -78.2422 171.064
RightUpLeg  10.7008 2.55077 -5.98371
RightLeg  28.0598 2.34881 1.13196
RightFoot  -10.0729 -0.173161 9.42597
RightToes  -1.46215e-006 3.27826e-006 1.63871e-007
Spine  11.7937 3.31753 14.6917
Spine1  -5.84574 6.38132 -17.5139
HEad  0.459975 1.38337 -0.845528
LeftShoulder1  0.0493561 6.69725 11.4235
LeftArm  -160.946 -58.3612 88.012
LeftForeArm  -1.23577 -38.2332 -8.90036
LeftHand  -1.22426 0.805876 30.5925
RightShoulder  0.176238 -5.18384 -21.1431
RightArm  -160.575 64.9761 -78.388
RightForeArm  10.0243 4.41207 -1.92444
RightHand  -3.01701 10.7349 -21.8106
LeftUpLeg  -13.5504 2.22883 -1.50726
LeftLeg  13.5913 3.73522 -0.881016
LeftFoot  7.03662 -0.541604 3.08247
LeftToes  1.24762e-006 1.46925e-008 1.29056e-009
125
root  -2.02188 39.0143 5.79934 -168.583 -82.2941 164.907
RightUpLeg  9.20454 4.22153 -6.40304
RightLeg  31.8963 7.65052 4.87441
RightFoot  -11.4602 -0.0687134 9.20047
RightToes  -1.46215e-006 3.27826e-006 1.63871e-007
Spine  12.5452 3.24305 13.5014
Spine1  -5.85463 6.12238 -16.5372
HEad  -2.37272 -1.22181 -1.44858
LeftShoulder1  0.0231265 6.14045 10.6593
LeftArm  -162.033 -56.8919 90.7865
LeftForeArm  2.10923 -44.7208 -10.9459
LeftHand  -1.30272 0.486283 30.4266
RightShoulder  0.178741 -5.25465 -20.8513
RightArm  -167.162 65.6125 -84.4077
RightForeArm  14.4047 8.20586 0.0409243
RightHand  -3.53436 10.9015 -25.1379
LeftUpLeg  -16.3546 3.28516 -3.10947
LeftLeg  17.1303 -1.10666 -1.15553
LeftFoot  5.96723 -0.534304 3.27139
LeftToes  1.24762e-006 1.46925e-008 1.29056e-009
126
root  -1.82643 38.6133 5.66899 -156.626 -85.7328 153.194
RightUpLeg  7.63037 2.28904 -6.44264
RightLeg  36.0009 8.88293 6.61809
RightFoot  -13.064 0.0375936 8.43647
RightToes  -1.46215e-006 3.27826e-006 1.63871e-007
Spine  13.1387 3.15294 11.9552
Spine1  -5.55682 5.75456 -14.7621
HEad  -4.10113 -2.72261 -1.29334
LeftShoulder1  -0.000932717 5.72242 9.62373
LeftArm  -162.907 -57.4509 91.4511
LeftForeArm  4.14065 -49.1242 -12.6808
LeftHand  -1.15815 0.924213 29.7602
RightShoulder  0.143752 -5.00169 -20.1034
RightArm  -166.367 66.5489 -82.4943
RightForeArm  16.59 11.6192 1.48488
RightHand  -3.64097 11.0778 -25.586
LeftUpLeg  -19.3103 3.56401 -4.08657
LeftLeg  21.3382 -4.65262 -1.74057
LeftFoot  4.66503 -0.522931 3.51735
LeftToes  1.24762e-006 1.46925e-008 1.29056e-009
